<?xml version="1.0" encoding="utf-8"?>
<!-- Generator: Adobe Illustrator 24.1.2, SVG Export Plug-In . SVG Version: 6.00 Build 0)  -->
<svg version="1.1" id="Layer_1" xmlns="http://www.w3.org/2000/svg" xmlns:xlink="http://www.w3.org/1999/xlink" x="0px" y="0px"
	 width="254.3px" height="147px" viewBox="0 0 254.3 147" style="enable-background:new 0 0 254.3 147;" xml:space="preserve">
<style type="text/css">
	.st0{fill:#003752;}
	.st1{fill:#5FB14A;}
</style>
<g>
	<g>
		<path class="st0" d="M145.9,87l-11.3,35.2h2.1L148,87H145.9z M156.8,59.7L168,24.8h-2l-11.2,34.9H156.8z M31.7,73.4L31.7,73.4
			c0-5.6,4.3-10.1,10.2-10.1c3.5,0,5.6,0.9,7.6,2.7l-2.7,3.2c-1.5-1.2-2.8-2-5.1-2c-3.1,0-5.6,2.7-5.6,6v0.1c0,3.5,2.4,6.2,5.9,6.2
			c1.6,0,2.9-0.4,4-1.2v-2.8h-4.3v-3.7h8.4v8.4c-2,1.7-4.7,3.1-8.3,3.1C35.8,83.4,31.7,79.1,31.7,73.4L31.7,73.4z M53.4,63.6h4.3
			v15.5h9.7V83h-14V63.6z M78.1,63.5H82L90.4,83h-4.5l-1.8-4.4h-8.2L74.2,83h-4.4L78.1,63.5z M82.6,74.9L80,68.6l-2.6,6.3H82.6z
			 M91.8,80.2l2.5-3c1.7,1.4,3.6,2.4,5.8,2.4c1.7,0,2.8-0.7,2.8-1.8v-0.1c0-1.1-0.7-1.6-3.9-2.5c-3.9-1-6.4-2.1-6.4-5.9v-0.1
			c0-3.5,2.8-5.9,6.8-5.9c2.8,0,5.2,0.9,7.2,2.5l-2.2,3.2c-1.7-1.2-3.4-1.9-5.1-1.9c-1.6,0-2.5,0.8-2.5,1.7v0.1
			c0,1.3,0.8,1.7,4.2,2.6c3.9,1,6.2,2.4,6.2,5.8v0.1c0,3.9-2.9,6-7.1,6C97.1,83.3,94.1,82.3,91.8,80.2z M109.1,80.2l2.5-3
			c1.7,1.4,3.6,2.4,5.8,2.4c1.7,0,2.8-0.7,2.8-1.8v-0.1c0-1.1-0.7-1.6-3.9-2.5c-3.9-1-6.4-2.1-6.4-5.9v-0.1c0-3.5,2.8-5.9,6.8-5.9
			c2.8,0,5.2,0.9,7.2,2.5l-2.2,3.2c-1.7-1.2-3.4-1.9-5.1-1.9s-2.5,0.8-2.5,1.7v0.1c0,1.3,0.8,1.7,4.2,2.6c3.9,1,6.2,2.4,6.2,5.8v0.1
			c0,3.9-2.9,6-7.1,6C114.4,83.3,111.4,82.3,109.1,80.2z M140.7,63.5h1.8l5.3,16.2l5.6-16.2h2.3l-6.9,19.6h-1.9l-5.3-15.8l-5.4,15.8
			h-1.8l-6.9-19.6h2.4l5.6,16.2L140.7,63.5z M173.5,83h-2.4l-2.3-5.1h-10.6L156,83h-2.2l8.9-19.6h2.1L173.5,83z M163.6,66l-4.4,9.9
			h8.9L163.6,66z M176.9,63.6h2.2V81H190v2h-13.1V63.6z M193.5,63.6h2.2V81h10.9v2h-13.1L193.5,63.6L193.5,63.6z"/>
	</g>
</g>
<g>
	<g>
		<path class="st1" d="M162.6,106.6c-0.1,0.1-0.2,0.2-0.2,0.3c-0.1,0.1-0.2,0.1-0.3,0.1s-0.3-0.1-0.5-0.2s-0.4-0.3-0.7-0.5
			s-0.6-0.3-1-0.5c-0.4-0.1-0.9-0.2-1.5-0.2c-0.5,0-1,0.1-1.4,0.2s-0.7,0.3-1,0.6c-0.3,0.2-0.5,0.5-0.6,0.9s-0.2,0.7-0.2,1.1
			c0,0.5,0.1,0.9,0.4,1.2c0.2,0.3,0.6,0.6,1,0.8c0.4,0.2,0.9,0.4,1.4,0.6s1,0.3,1.6,0.5c0.5,0.2,1,0.4,1.6,0.6
			c0.5,0.2,1,0.5,1.4,0.9c0.4,0.3,0.7,0.8,1,1.3c0.2,0.5,0.4,1.1,0.4,1.9s-0.1,1.5-0.4,2.2c-0.3,0.7-0.6,1.3-1.2,1.8
			c-0.5,0.5-1.1,0.9-1.9,1.2c-0.7,0.3-1.6,0.4-2.5,0.4c-1.2,0-2.2-0.2-3.1-0.6c-0.9-0.4-1.7-1-2.4-1.7l0.7-1.1
			c0.1-0.1,0.1-0.2,0.2-0.2c0.1-0.1,0.2-0.1,0.3-0.1s0.2,0,0.4,0.1c0.1,0.1,0.3,0.2,0.5,0.3c0.2,0.1,0.4,0.3,0.6,0.4
			s0.5,0.3,0.8,0.4s0.6,0.2,1,0.3c0.4,0.1,0.8,0.1,1.2,0.1c0.6,0,1.1-0.1,1.5-0.2c0.4-0.2,0.8-0.4,1.1-0.7c0.3-0.3,0.5-0.6,0.7-1
			s0.2-0.8,0.2-1.3s-0.1-1-0.4-1.3c-0.2-0.3-0.6-0.6-1-0.9c-0.4-0.2-0.8-0.4-1.4-0.6c-0.5-0.2-1-0.3-1.6-0.5c-0.5-0.2-1-0.4-1.6-0.6
			c-0.5-0.2-1-0.5-1.4-0.9s-0.7-0.8-1-1.3c-0.2-0.5-0.4-1.2-0.4-2c0-0.6,0.1-1.2,0.4-1.8c0.2-0.6,0.6-1.1,1.1-1.6s1-0.8,1.7-1.1
			c0.7-0.3,1.5-0.4,2.3-0.4c1,0,1.9,0.2,2.7,0.5s1.5,0.8,2.1,1.4L162.6,106.6z"/>
		<path class="st1" d="M169.7,121.8c-1,0-1.7-0.3-2.3-0.8c-0.5-0.6-0.8-1.3-0.8-2.4v-7.7h-1.5c-0.1,0-0.2,0-0.3-0.1
			s-0.1-0.2-0.1-0.4v-0.9l2-0.3l0.5-3.9c0-0.1,0.1-0.2,0.2-0.3c0.1-0.1,0.2-0.1,0.3-0.1h1.1v4.3h3.6v1.6h-3.6v7.5
			c0,0.5,0.1,0.9,0.4,1.2c0.3,0.3,0.6,0.4,1,0.4c0.2,0,0.4,0,0.6-0.1c0.2-0.1,0.3-0.1,0.4-0.2c0.1-0.1,0.2-0.1,0.3-0.2
			s0.2-0.1,0.2-0.1c0.1,0,0.2,0.1,0.3,0.2l0.6,1c-0.4,0.4-0.8,0.6-1.4,0.8C170.8,121.7,170.3,121.8,169.7,121.8z"/>
		<path class="st1" d="M179.9,108.9c0.9,0,1.7,0.2,2.5,0.5c0.7,0.3,1.4,0.7,1.9,1.3c0.5,0.6,0.9,1.2,1.2,2s0.4,1.7,0.4,2.7
			s-0.1,1.9-0.4,2.7c-0.3,0.8-0.7,1.5-1.2,2c-0.5,0.6-1.1,1-1.9,1.3c-0.7,0.3-1.6,0.5-2.5,0.5s-1.8-0.2-2.5-0.5s-1.4-0.7-1.9-1.3
			c-0.5-0.6-0.9-1.2-1.2-2s-0.4-1.7-0.4-2.7s0.1-1.9,0.4-2.7c0.3-0.8,0.7-1.5,1.2-2c0.5-0.6,1.1-1,1.9-1.3
			C178.2,109,179,108.9,179.9,108.9z M179.9,120c1.2,0,2.2-0.4,2.8-1.2c0.6-0.8,0.9-2,0.9-3.5s-0.3-2.7-0.9-3.5
			c-0.6-0.8-1.5-1.2-2.8-1.2c-0.6,0-1.2,0.1-1.6,0.3c-0.5,0.2-0.9,0.5-1.2,0.9s-0.5,0.9-0.7,1.5s-0.2,1.3-0.2,2
			c0,1.5,0.3,2.6,0.9,3.5C177.7,119.6,178.7,120,179.9,120z"/>
		<path class="st1" d="M190.7,111.6c0.4-0.9,0.9-1.5,1.5-2s1.3-0.7,2.1-0.7c0.3,0,0.5,0,0.8,0.1c0.2,0.1,0.5,0.1,0.6,0.3l-0.2,1.6
			c0,0.2-0.2,0.3-0.4,0.3c-0.1,0-0.3,0-0.5-0.1c-0.2,0-0.5-0.1-0.8-0.1c-0.4,0-0.7,0.1-1.1,0.2c-0.3,0.1-0.6,0.3-0.8,0.5
			s-0.5,0.5-0.7,0.8s-0.4,0.7-0.5,1.1v7.9h-2.2V109h1.3c0.2,0,0.4,0,0.5,0.1s0.2,0.2,0.2,0.5L190.7,111.6z"/>
		<path class="st1" d="M207.3,119.8c-0.3,0.3-0.6,0.6-1,0.9c-0.4,0.2-0.8,0.4-1.2,0.6s-0.9,0.3-1.3,0.4c-0.5,0.1-0.9,0.1-1.4,0.1
			c-0.9,0-1.7-0.1-2.4-0.4s-1.4-0.7-1.9-1.3c-0.5-0.6-0.9-1.3-1.2-2.1c-0.3-0.8-0.4-1.8-0.4-2.9c0-0.9,0.1-1.7,0.4-2.4
			c0.3-0.8,0.7-1.4,1.2-2s1.1-1,1.8-1.3s1.5-0.5,2.4-0.5c0.7,0,1.4,0.1,2.1,0.4c0.6,0.3,1.2,0.6,1.7,1.1s0.8,1.1,1.1,1.8
			c0.3,0.7,0.4,1.5,0.4,2.4c0,0.3,0,0.6-0.1,0.7s-0.2,0.2-0.4,0.2h-8.4c0,0.8,0.1,1.5,0.3,2.1s0.5,1.1,0.8,1.5s0.8,0.7,1.2,0.9
			c0.5,0.2,1,0.3,1.6,0.3s1-0.1,1.4-0.2s0.7-0.3,1-0.4s0.5-0.3,0.7-0.4s0.4-0.2,0.5-0.2c0.2,0,0.3,0.1,0.4,0.2L207.3,119.8z
			 M205.5,113.9c0-0.5-0.1-1-0.2-1.4c-0.1-0.4-0.4-0.8-0.6-1.1c-0.3-0.3-0.6-0.5-1-0.7s-0.8-0.3-1.3-0.3c-1.1,0-1.9,0.3-2.5,0.9
			s-1,1.5-1.1,2.5L205.5,113.9L205.5,113.9z"/>
	</g>
</g>
</svg>
